HIERARCHY
ROOT Hips
{
  OFFSET 0 0 0
  CHANNELS 6 Xposition Yposition Zposition Zrotation Yrotation Xrotation
  JOINT LeftThigh
  {
    OFFSET 8.409438 0 -5.917753
    CHANNELS 3 Zrotation Yrotation Xrotation
    JOINT LeftLeg
    {
      OFFSET 0 0 -42.358652
      CHANNELS 3 Zrotation Yrotation Xrotation
      JOINT LeftFoot
      {
        OFFSET 0 0 -39.357303
        CHANNELS 3 Zrotation Yrotation Xrotation
      }
    }
  }
  JOINT RightThigh
  {
    OFFSET -8.409438 0 -5.917753
    CHANNELS 3 Zrotation Yrotation Xrotation
    JOINT RightLeg
    {
      OFFSET 0 0 -42.358652
      CHANNELS 3 Zrotation Yrotation Xrotation
      JOINT RightFoot
      {
        OFFSET 0 0 -39.357303
        CHANNELS 3 Zrotation Yrotation Xrotation
      }
    }
  }
  JOINT SpineLow
  {
    OFFSET 0 0 4.719101
    CHANNELS 3 Zrotation Yrotation Xrotation
    JOINT SpineMid
    {
      OFFSET 0 0 12.899191
      CHANNELS 3 Zrotation Yrotation Xrotation
      JOINT Chest
      {
        OFFSET 0 0 12.899191
        CHANNELS 3 Zrotation Yrotation Xrotation
        JOINT LeftShoulder
        {
          OFFSET 7.550562 1.41573 9.438202
          CHANNELS 3 Zrotation Yrotation Xrotation
          JOINT LeftArm
          {
            OFFSET 9.155056 0 4.247191
            CHANNELS 3 Zrotation Yrotation Xrotation
            JOINT LeftForearm
            {
              OFFSET 0 0 25.771955
              CHANNELS 3 Zrotation Yrotation Xrotation
              JOINT LeftHand
              {
                OFFSET 0 0 25.197169
                CHANNELS 3 Zrotation Yrotation Xrotation
              }
            }
          }
        }
        JOINT RightShoulder
        {
          OFFSET -7.550562 1.41573 9.438202
          CHANNELS 3 Zrotation Yrotation Xrotation
          JOINT RightArm
          {
            OFFSET -9.155056 0 4.247191
            CHANNELS 3 Zrotation Yrotation Xrotation
            JOINT RightForearm
            {
              OFFSET 0 0 -25.771955
              CHANNELS 3 Zrotation Yrotation Xrotation
              JOINT RightHand
              {
                OFFSET 0 0 -25.197169
                CHANNELS 3 Zrotation Yrotation Xrotation
              }
            }
          }
        }
        JOINT Neck
        {
          OFFSET 0 0 15.101124
          CHANNELS 3 Zrotation Yrotation Xrotation
          JOINT Head
          {
            OFFSET 0 0 11.325843
            CHANNELS 3 Zrotation Yrotation Xrotation
            End Site
            {
              OFFSET 0 0 14.157303
            }
          }
        }
      }
    }
  }
}
MOTION
Frames: 16
Frame Time: 0.0
0.0  89.887642  0.0  -0.941825  -19.905655  -93.311804  1.583079  -13.864398  2.245969  2.891124  -1.116567  15.504733  1.883814  0.752904  1.693598  -11.101108  8.998725  -5.006847  -9.158123  4.973627  4.299784  5.715788  0.315166  -0.571882  0.214903  -0.086152  -0.080862  0.587704  -0.234768  -0.221792  0.587704  -0.234768  -0.221792  -8.75655  16.561749  4.260744  155.641408  42.410148  -162.946815  0.295044  -1.525068  47.325146  88.963323  2.01555  -5.68333  -7.452572  -9.304597  24.296502  93.014799  41.287806  43.844052  10.446246  15.266432  -26.344501  91.402591  3.208838  -11.816224  -3.681994  0.630693  1.73922  -2.763288  0.462566  1.308258  
0.0  89.887642  0.0  -0.89187  -19.796233  -93.514209  1.6042  -13.889706  2.26373  2.659268  -1.051875  15.669915  1.863538  0.769185  1.734895  -11.341581  9.000031  -5.0066  -9.174072  5.003744  4.544645  5.954052  0.371065  -0.636721  0.204702  -0.076152  -0.053336  0.559702  -0.207699  -0.146433  0.559702  -0.207699  -0.146433  -8.673778  16.678335  4.385548  155.701516  42.380922  -162.882852  0.356043  -1.559306  47.038073  88.918771  2.003896  -5.754887  -7.408279  -9.174637  24.359855  93.227201  41.119951  43.707072  10.300429  15.342434  -26.064221  91.374553  3.307703  -11.616319  -3.746664  0.588014  1.783187  -2.811717  0.430102  1.341043  
0.0  89.887642  0.0  -0.851997  -19.635177  -93.691661  1.624416  -13.902707  2.242231  2.423591  -0.977201  15.874646  1.812752  0.766586  1.748702  -11.502229  9.023126  -4.997389  -9.119895  5.062242  4.809232  6.177713  0.422453  -0.685985  0.197494  -0.06436  -0.027346  0.539905  -0.175698  -0.075272  0.539905  -0.175698  -0.075271  -8.670048  16.762277  4.50503  155.807087  42.40373  -162.748634  0.383708  -1.546165  46.724465  88.887142  1.999554  -5.766851  -7.400199  -9.085957  24.381035  93.29158  41.007931  43.550415  10.32922  15.563416  -25.83074  91.320152  3.384578  -11.389988  -3.826333  0.551753  1.829624  -2.87141  0.402383  1.375726  
0.0  89.887642  0.0  -0.813201  -19.508555  -93.893348  1.83676  -13.97205  2.279084  2.150023  -0.840719  16.095952  1.701711  0.740515  1.716328  -11.834687  8.981082  -5.024777  -8.664623  5.185045  5.14996  6.310208  0.484811  -0.741622  0.181722  -0.054111  -0.00609  0.496732  -0.147859  -0.017053  0.496732  -0.147859  -0.017052  -8.587998  16.850968  4.676573  156.012349  42.433521  -162.646907  0.462306  -1.507258  46.531988  88.802986  1.976584  -5.801928  -7.274033  -9.041343  24.476515  93.340845  40.981943  43.482005  10.204183  15.673915  -25.574257  91.246873  3.46924  -11.190735  -3.828541  0.52056  1.930584  -2.873064  0.378348  1.451256  
0.0  89.887642  0.0  -0.781048  -19.280688  -94.023009  1.900159  -14.020712  2.189361  1.83188  -0.717864  16.302476  1.656022  0.731578  1.72412  -12.017294  8.981123  -5.056007  -8.566403  5.288032  5.443803  6.377142  0.541535  -0.786035  0.16495  -0.042845  0.012  0.450853  -0.117194  0.032509  0.450853  -0.117194  0.032509  -8.608096  16.936728  4.801609  156.256507  42.504331  -162.492036  0.470381  -1.419842  46.325904  88.74442  1.910361  -5.805919  -7.36063  -8.95878  24.464477  93.612817  40.919529  43.519093  10.177267  15.686953  -25.411773  91.098862  3.532422  -11.088853  -3.915328  0.501335  1.978739  -2.938137  0.363347  1.487329  
0.0  89.887642  0.0  -0.745038  -19.165849  -94.165183  2.281257  -14.109527  2.178629  1.478842  -0.552191  16.497729  1.517268  0.698419  1.664754  -12.131213  8.931921  -5.096754  -8.47889  5.409064  5.780484  6.457787  0.631914  -0.890475  0.160002  -0.033845  0.030616  0.437308  -0.092713  0.083463  0.437308  -0.092713  0.083463  -8.575149  17.020997  4.936972  156.368908  42.61039  -162.408128  0.4034  -1.326292  46.202367  88.645344  1.918656  -5.861958  -7.463649  -8.879923  24.42946  93.716903  40.932535  43.488786  10.113172  15.561413  -25.256229  91.118152  3.603821  -11.060776  -3.930861  0.490309  2.060366  -2.94982  0.354501  1.548494  
0.0  89.887642  0.0  -0.712388  -18.907046  -94.220602  2.374556  -14.159067  1.998877  1.169809  -0.428967  16.707451  1.413228  0.693938  1.639722  -12.252203  8.906074  -5.179009  -8.555729  5.525199  6.086649  6.666036  0.727438  -0.96903  0.132506  -0.022032  0.039193  0.362155  -0.060436  0.107009  0.362155  -0.060436  0.107008  -8.54289  17.082815  5.035459  156.576197  42.700702  -162.30715  0.349536  -1.238494  46.089772  88.615087  1.892419  -5.874455  -7.469318  -8.814615  24.393879  93.81142  40.902702  43.405983  10.095728  15.429712  -25.022374  91.102769  3.636333  -11.042332  -4.00349  0.483137  2.090059  -3.004293  0.348684  1.57078  
0.0  89.887642  0.0  -0.669597  -18.697086  -94.288698  2.66026  -14.229043  1.885575  0.79827  -0.260572  16.858152  1.150582  0.678103  1.509168  -12.407487  8.901989  -5.295067  -8.567563  5.623611  6.422995  6.949498  0.838513  -1.051715  0.116981  -0.012318  0.052655  0.319729  -0.033925  0.143867  0.319729  -0.033925  0.143867  -8.508892  17.148813  5.114596  156.444372  42.859443  -162.280761  0.128738  -1.18616  45.899808  88.569802  1.910054  -5.873002  -7.677237  -8.764534  24.248903  93.977274  40.817378  43.343202  10.066777  15.27359  -24.737054  91.082162  3.632881  -10.998042  -4.027544  0.49173  2.137456  -3.022403  0.354734  1.606405  
0.0  89.887642  0.0  -0.628673  -18.424652  -94.333031  2.748964  -14.271743  1.702362  0.568272  -0.151389  17.062976  0.868559  0.702321  1.374189  -12.505313  8.919746  -5.403544  -8.540909  5.695341  6.786692  7.094064  0.942293  -1.132446  0.09498  0.00201  0.065154  0.259624  0.005237  0.1781  0.259624  0.005237  0.1781  -8.566801  17.193142  5.15647  156.669872  42.976291  -162.189447  0.132604  -1.15233  45.837597  88.561984  1.909292  -5.808996  -7.645074  -8.729062  24.190816  93.923363  40.844797  43.184331  10.157631  15.188453  -24.410128  91.082304  3.647773  -10.911514  -4.137669  0.483509  2.127229  -3.104961  0.348253  1.598773  
0.0  89.887642  0.0  -0.580631  -18.146121  -94.365357  2.821348  -14.30892  1.4984  0.468139  -0.041689  17.351715  0.649102  0.704887  1.305003  -12.92674  8.912743  -5.662874  -8.391728  5.795477  7.196109  7.437682  1.05413  -1.181093  0.081598  0.012554  0.081446  0.223081  0.03404  0.222665  0.223081  0.03404  0.222665  -8.706855  17.261129  5.183064  156.677318  43.177833  -162.065832  -0.009994  -1.143239  45.657479  88.557962  1.939229  -5.735573  -7.87031  -8.684614  23.998797  93.927701  40.877418  43.073247  10.322881  15.104197  -24.109097  90.915131  3.611257  -10.758218  -4.226589  0.495177  2.113513  -3.17168  0.356791  1.58864  
0.0  89.887642  0.0  -0.532374  -17.834751  -94.377344  2.826025  -14.319151  1.299943  0.298518  0.044695  17.557501  0.473722  0.710988  1.205031  -13.023693  8.952318  -5.833846  -8.290001  5.86789  7.652001  7.533653  1.153111  -1.255454  0.059166  0.025629  0.096256  0.161827  0.069819  0.263168  0.161827  0.069819  0.263168  -8.858156  17.341561  5.205285  157.001894  43.40122  -161.888716  0.033197  -1.113971  45.641485  88.59698  1.973589  -5.623302  -7.800681  -8.609158  23.912876  94.031677  40.92766  43.044162  10.332399  14.990758  -23.808255  90.849112  3.609577  -10.594153  -4.366694  0.486059  2.049209  -3.276674  0.349928  1.540464  
0.0  89.887642  0.0  -0.496205  -17.444437  -94.383535  2.716014  -14.341759  1.074852  0.228175  0.155649  17.827121  0.316973  0.703044  1.111692  -13.470855  8.982105  -6.164915  -8.313196  5.988081  8.155377  7.963821  1.246998  -1.268343  0.053664  0.033774  0.122  0.146856  0.092047  0.333548  0.146856  0.092047  0.333548  -9.244812  17.455704  5.157441  157.131112  43.743734  -161.703363  -0.101707  -1.09312  45.537109  88.641327  2.038723  -5.474302  -8.057524  -8.491003  23.675715  94.153739  41.01639  43.055473  10.308688  14.796077  -23.599019  90.806381  3.626025  -10.422082  -4.590658  0.477043  1.952995  -3.44454  0.343139  1.46842  
0.0  89.887642  0.0  -0.447761  -17.134178  -94.445409  2.716041  -14.365196  0.92531  0.141362  0.253767  18.070229  0.101384  0.694754  0.985893  -13.528502  9.028104  -6.42017  -8.129052  6.140732  8.85482  8.028759  1.326283  -1.33731  0.043881  0.044244  0.150388  0.12022  0.120662  0.41115  0.12022  0.120662  0.41115  -9.534635  17.571561  5.126998  157.46083  44.089852  -161.510023  -0.096868  -1.072781  45.63168  88.700592  2.138615  -5.294134  -7.908857  -8.368686  23.593905  94.318267  41.116903  43.110048  10.211021  14.591099  -23.350265  90.714394  3.603702  -10.23573  -4.763962  0.465639  1.846155  -3.574397  0.334865  1.388338  
0.0  89.887642  0.0  -0.427289  -16.714142  -94.48806  2.63343  -14.438852  0.740909  -0.086792  0.321413  18.217721  -0.031533  0.781807  0.974331  -13.987158  9.007964  -6.866529  -8.098636  6.341671  9.636233  8.260924  1.395584  -1.368423  0.04339  0.045884  0.183563  0.118951  0.12509  0.501833  0.118951  0.12509  0.501833  -10.062402  17.723525  5.040631  157.652462  44.528629  -161.308066  -0.266382  -1.042389  45.737124  88.804092  2.266459  -5.116923  -8.116409  -8.220633  23.353631  94.56312  41.196331  43.247325  10.152884  14.35383  -23.21679  90.667892  3.623376  -10.036836  -5.030207  0.46311  1.709879  -3.773965  0.333288  1.286318  
0.0  89.887642  0.0  -0.380103  -16.402465  -94.610797  2.705289  -14.490794  0.61905  -0.264682  0.478328  18.49895  -0.247919  0.760283  0.873951  -14.096766  9.024183  -7.231106  -7.719022  6.57411  10.597415  8.29735  1.480733  -1.400318  0.039308  0.052561  0.218353  0.107919  0.143313  0.596932  0.107919  0.143313  0.596933  -10.44524  17.91779  5.042705  158.037603  45.021821  -161.081834  -0.365715  -1.002361  46.145485  88.94629  2.421588  -4.940505  -7.950214  -8.038891  23.27248  94.743153  41.287239  43.309727  10.144881  14.215941  -22.976783  90.634599  3.583886  -9.759696  -5.201139  0.451773  1.606825  -3.902053  0.325185  1.209061  
0.0  89.887642  0.0  -0.370938  -15.994228  -94.702429  2.550828  -14.614509  0.343621  -0.616619  0.698553  18.778487  -0.202885  0.818217  0.943491  -14.517614  8.990245  -7.810776  -8.250153  6.795673  11.55462  9.204672  1.730576  -1.282417  0.036895  0.051411  0.255019  0.101391  0.140136  0.697149  0.101391  0.140136  0.697149  -11.137431  18.106693  4.961078  158.494825  45.536336  -160.846837  -0.592938  -0.981878  46.728449  89.072944  2.601412  -4.773524  -8.000842  -7.845103  23.101063  94.831102  41.411594  43.303943  10.227188  14.164755  -22.713798  90.659935  3.587451  -9.461281  -5.454502  0.446625  1.474455  -4.091961  0.321842  1.109926  
